<svg width="123" height="118" viewBox="0 0 123 118" fill="none" xmlns="http://www.w3.org/2000/svg">
<path fill-rule="evenodd" clip-rule="evenodd" d="M71.3588 103.318H74.9671V96.5391H71.3588V103.318ZM6.5682 0.15799H116.413C118.048 0.15799 119.545 0.835887 120.626 1.92252C121.716 3.01912 122.39 4.52445 122.39 6.16935V111.383C122.39 113.038 121.716 114.543 120.636 115.64C119.555 116.726 118.058 117.404 116.413 117.404H6.5682C4.92266 117.404 3.42581 116.726 2.34531 115.64C1.2648 114.553 0.590729 113.038 0.590729 111.383V6.16935C0.590729 4.52445 1.2648 3.01912 2.35522 1.92252C3.44564 0.835887 4.93257 0.15799 6.5682 0.15799ZM114.936 7.66471H8.05513V54.2502H18.6421V50.2227C18.543 50.1828 18.4537 50.123 18.3744 50.0732C18.2158 49.9735 18.0671 49.8539 17.9383 49.7342L17.9284 49.7143C17.7004 49.495 17.5219 49.2158 17.3931 48.9168C17.2741 48.6177 17.2047 48.2887 17.2047 47.9498C17.2047 47.6008 17.2741 47.2818 17.3931 46.9828C17.5219 46.6737 17.7103 46.3946 17.9383 46.1454C18.1663 45.9161 18.4438 45.7267 18.7511 45.5971C19.0584 45.4774 19.3756 45.4076 19.7127 45.4076C20.0596 45.4076 20.3768 45.4774 20.6742 45.5971C20.9815 45.7267 21.2591 45.9161 21.497 46.1454C21.725 46.3846 21.9133 46.6538 22.0422 46.9628L22.0521 46.9828C22.1711 47.2719 22.2405 47.6008 22.2405 47.9298C22.2405 48.2688 22.1711 48.5978 22.0521 48.8968C21.9233 49.2059 21.7349 49.485 21.5069 49.7143L21.4871 49.7342C21.3681 49.8439 21.2492 49.9535 21.1104 50.0433C21.0311 50.0931 20.9617 50.143 20.8824 50.1729V55.3668C20.8824 55.6758 20.7535 55.9649 20.5553 56.1643C20.3471 56.3637 20.0695 56.4933 19.7622 56.4933H8.05513V59.8828H24.5204C24.5601 59.793 24.6096 59.7133 24.6592 59.6335L24.6691 59.6236C24.7683 59.474 24.8773 59.3444 24.9962 59.2248C25.2342 58.9955 25.5018 58.8061 25.819 58.6765L25.8388 58.6665C26.1362 58.5469 26.4534 58.4771 26.7806 58.4771C27.1176 58.4771 27.4447 58.5469 27.7421 58.6665C28.0494 58.7961 28.3369 58.9855 28.555 59.2148C28.783 59.4441 28.9713 59.7232 29.1002 60.0323C29.2191 60.3413 29.2885 60.6603 29.2885 60.9993C29.2885 61.3482 29.2191 61.6672 29.1002 61.9663C28.9713 62.2753 28.783 62.5545 28.555 62.7838C28.3171 63.013 28.0494 63.2025 27.7421 63.3321L27.7223 63.342C27.4249 63.4617 27.1077 63.5314 26.7806 63.5314C26.4336 63.5314 26.1164 63.4617 25.819 63.342C25.5117 63.2124 25.2342 63.023 24.9962 62.7937C24.8773 62.6741 24.7583 62.5345 24.6691 62.375C24.6196 62.2953 24.57 62.2055 24.5303 62.1258H8.05513V66.0337H26.6517C26.959 66.0337 27.2366 66.1633 27.4447 66.3627C27.6529 66.562 27.7719 66.8412 27.7719 67.1602V75.5242C27.871 75.5641 27.98 75.6239 28.0792 75.6837C28.2477 75.7934 28.4162 75.913 28.555 76.0626C28.783 76.3018 28.9713 76.571 29.1002 76.88L29.1101 76.9C29.229 77.1991 29.2885 77.5181 29.2885 77.847C29.2885 78.186 29.2191 78.515 29.1002 78.814C28.9713 79.1231 28.783 79.4022 28.555 79.6514C28.327 79.8807 28.0494 80.0701 27.7421 80.1997C27.4348 80.3194 27.1176 80.3892 26.7806 80.3892C26.4435 80.3892 26.1164 80.3194 25.819 80.1997C25.5117 80.0701 25.2342 79.8807 25.0062 79.6514C24.7782 79.4221 24.5898 79.143 24.461 78.834C24.342 78.5349 24.2726 78.2059 24.2726 77.867C24.2726 77.5181 24.342 77.1991 24.461 76.9C24.5898 76.5909 24.7782 76.3018 25.0062 76.0725C25.1152 75.9629 25.2242 75.8732 25.3531 75.7834C25.4126 75.7436 25.482 75.7037 25.5415 75.6638V68.3066H8.05513V71.4967H17.859C18.1663 71.4967 18.4438 71.6263 18.6421 71.8257C18.8503 72.0351 18.9692 72.3142 18.9692 72.6232V77.0994C19.0485 77.1392 19.1278 77.1791 19.2071 77.229C19.3558 77.3286 19.4946 77.4383 19.6136 77.5579L19.6334 77.5779C19.8515 77.8072 20.0299 78.0863 20.1588 78.3854C20.2777 78.6844 20.3471 79.0134 20.3471 79.3524C20.3471 79.7013 20.2777 80.0203 20.1588 80.3194L20.1488 80.3393C20.02 80.6483 19.8415 80.9175 19.6136 81.1468L19.5937 81.1568C19.3657 81.3861 19.0882 81.5655 18.7908 81.6951C18.5033 81.8347 18.1762 81.9044 17.8391 81.9044C17.5021 81.9044 17.175 81.8347 16.8776 81.715C16.5703 81.5854 16.2828 81.396 16.0647 81.1667L16.0449 81.1468C15.8268 80.9175 15.6484 80.6384 15.5195 80.3393C15.4006 80.0303 15.3312 79.7113 15.3312 79.3723C15.3312 79.0334 15.4006 78.7143 15.5195 78.4153C15.6484 78.1062 15.8367 77.8171 16.0647 77.5978C16.1936 77.4582 16.3324 77.3486 16.491 77.2489C16.5703 77.1891 16.6595 77.1492 16.7487 77.0994V73.7697H8.05513V109.898H24.7881V99.1809H20.7932C20.7436 99.2706 20.6941 99.3703 20.6445 99.45C20.5454 99.6095 20.4264 99.7591 20.3075 99.8787L20.2876 99.8887C20.0695 100.118 19.792 100.297 19.4946 100.427C19.1972 100.547 18.8701 100.616 18.533 100.616C18.1861 100.616 17.8689 100.547 17.5715 100.427C17.2642 100.297 16.9866 100.108 16.7388 99.8787C16.5108 99.6494 16.3225 99.3703 16.1936 99.0612C16.0747 98.7522 16.0053 98.4332 16.0053 98.0942C16.0053 97.7453 16.0747 97.4263 16.1936 97.1272C16.3225 96.8182 16.5108 96.5391 16.7388 96.3098C16.9767 96.0805 17.2444 95.8911 17.5517 95.7615L17.5715 95.7515C17.859 95.6319 18.1861 95.5621 18.5132 95.5621C18.8503 95.5621 19.1774 95.6319 19.4748 95.7515C19.7821 95.8811 20.0596 96.0705 20.2876 96.2998L20.3075 96.3197C20.4264 96.4394 20.5255 96.559 20.6148 96.6986C20.6643 96.7783 20.7139 96.8481 20.7436 96.9279H25.9082C26.2155 96.9279 26.503 97.0575 26.7013 97.2568C26.8995 97.4662 27.0284 97.7453 27.0284 98.0544V109.898H30.3988V93.2592C30.3096 93.2194 30.2303 93.1695 30.1509 93.1197H30.141C29.9923 93.02 29.8635 92.9103 29.7445 92.7907C29.5165 92.5514 29.3282 92.2823 29.1993 91.9732L29.1894 91.9533C29.0704 91.6542 29.0011 91.3352 29.0011 90.9963C29.0011 90.6573 29.0704 90.3283 29.1894 90.0293C29.3183 89.7202 29.5066 89.4311 29.7346 89.2118C29.9626 88.9825 30.2402 88.7931 30.5475 88.6635C30.8548 88.5439 31.172 88.4741 31.509 88.4741C31.856 88.4741 32.1732 88.5439 32.4706 88.6635C32.7779 88.7931 33.0554 88.9825 33.2834 89.2118C33.5114 89.451 33.6998 89.7202 33.8286 90.0293L33.8385 90.0492C33.9575 90.3483 34.017 90.6673 34.017 90.9963C34.017 91.3452 33.9476 91.6642 33.8286 91.9632C33.6998 92.2723 33.5114 92.5514 33.2834 92.7807C33.1645 92.9004 33.0257 93.02 32.8671 93.1097C32.7878 93.1595 32.6986 93.2094 32.6193 93.2493V109.878H36.5051V91.1159C36.5051 90.8068 36.634 90.5277 36.8322 90.3184C37.0305 90.109 37.3081 89.9894 37.6253 89.9894H45.9422C45.9917 89.8897 46.0413 89.78 46.1008 89.6803C46.2098 89.5109 46.3387 89.3414 46.4775 89.2018C46.7154 88.9725 46.983 88.7831 47.2903 88.6535L47.3102 88.6436C47.6075 88.5239 47.9248 88.4641 48.2519 88.4641C48.5889 88.4641 48.916 88.5339 49.2134 88.6535C49.5207 88.7831 49.7983 88.9725 50.0461 89.2018C50.2741 89.4311 50.4624 89.7102 50.5913 90.0193C50.7103 90.3283 50.7797 90.6473 50.7797 90.9863C50.7797 91.3352 50.7103 91.6542 50.5913 91.9533C50.4624 92.2623 50.2741 92.5415 50.0461 92.7708C49.8181 93 49.5405 93.1894 49.2332 93.319C48.9359 93.4387 48.6087 93.5085 48.2717 93.5085C47.9247 93.5085 47.6075 93.4387 47.3102 93.319C47.0028 93.1894 46.7253 93 46.4874 92.7708C46.3783 92.6611 46.2891 92.5514 46.1999 92.4218C46.1603 92.362 46.1206 92.2922 46.081 92.2324H38.7652V109.878H41.9374V99.9485C41.9374 99.6394 42.0662 99.3603 42.2645 99.1609C42.4727 98.9516 42.7502 98.832 43.0575 98.832H47.5084C47.5481 98.7522 47.5877 98.6724 47.6472 98.5927C47.7463 98.4432 47.8554 98.3036 47.9743 98.184L47.9941 98.164C48.2221 97.9447 48.4898 97.7653 48.7971 97.6357C49.0945 97.516 49.4216 97.4462 49.7586 97.4462C50.0957 97.4462 50.4228 97.516 50.7202 97.6357L50.74 97.6456C51.0473 97.7752 51.315 97.9547 51.543 98.184L51.5529 98.2039C51.7809 98.4332 51.9593 98.7024 52.0882 99.0014C52.2071 99.3005 52.2765 99.6295 52.2765 99.9684C52.2765 100.307 52.2071 100.636 52.0882 100.935C51.9593 101.244 51.771 101.534 51.543 101.753L51.5231 101.773C51.2951 101.992 51.0176 102.172 50.7202 102.301C50.4129 102.421 50.0957 102.491 49.7586 102.491C49.4216 102.491 49.0945 102.421 48.7971 102.301C48.4898 102.172 48.2023 101.982 47.9842 101.753C47.8554 101.623 47.7364 101.484 47.6373 101.324C47.5778 101.244 47.5381 101.155 47.4886 101.065H44.1777V109.858H114.926V7.66471H114.936ZM33.1347 39.6455H34.5523V35.9071H33.1347V39.6455ZM17.1948 39.6455H18.6124V35.9071H17.1948V39.6455ZM16.9569 18.541H24.4213C24.7484 18.541 25.026 18.8101 25.026 19.1491V34.0529C25.026 34.3818 24.7484 34.651 24.4213 34.651H16.9569C16.6298 34.651 16.3522 34.3818 16.3522 34.0529V19.1391C16.3522 18.8002 16.6298 18.541 16.9569 18.541ZM22.9938 13.4867H24.1636V17.2251H22.9938V13.4867ZM20.2182 13.4867H21.388V17.2251H20.2182V13.4867ZM17.1948 13.4867H18.6124V17.2251H17.1948V13.4867ZM22.9938 39.6455H24.1636V35.9071H22.9938V39.6455ZM20.2182 39.6455H21.388V35.9071H20.2182V39.6455ZM32.8968 18.541H40.3612C40.6983 18.541 40.956 18.8101 40.956 19.1491V34.0529C40.956 34.3818 40.6883 34.651 40.3612 34.651H32.8968C32.5697 34.651 32.302 34.3818 32.302 34.0529V19.1391C32.2921 18.8002 32.5697 18.541 32.8968 18.541ZM38.9338 13.4867H40.1134V17.2251H38.9338V13.4867ZM36.1582 13.4867H37.3279V17.2251H36.1582V13.4867ZM33.1347 13.4867H34.5523V17.2251H33.1347V13.4867ZM38.9338 39.6455H40.1134V35.9071H38.9338V39.6455ZM36.1582 39.6455H37.3279V35.9071H36.1582V39.6455ZM51.5033 17.564C51.5033 17.0257 52.0981 16.5771 52.8415 16.5771C53.585 16.5771 54.1798 17.0157 54.1798 17.564V50.2925C54.1798 50.8308 53.585 51.2794 52.8415 51.2794C52.0981 51.2794 51.5033 50.8408 51.5033 50.2925V17.564ZM60.2564 17.4344V18.9298H65.302V17.4344H60.2564ZM60.2564 40.2138V41.7191H65.302V40.2138H60.2564ZM102.099 38.8281V43.354C102.099 43.7029 101.811 43.992 101.464 43.992H66.6998C66.3429 43.992 66.0653 43.7029 66.0653 43.354V38.8281C66.0653 38.4791 66.3429 38.19 66.6998 38.19H101.464C101.811 38.19 102.099 38.4791 102.099 38.8281ZM106.837 40.2138V41.7191H102.921V40.2138H106.837ZM60.2564 28.8191V30.3244H65.302V28.8191H60.2564ZM102.099 27.4434V31.9594C102.099 32.3182 101.811 32.5974 101.464 32.5974H66.6998C66.3429 32.5974 66.0653 32.3182 66.0653 31.9594V27.4434C66.0653 27.0845 66.3429 26.8053 66.6998 26.8053H101.464C101.811 26.8053 102.099 27.0845 102.099 27.4434ZM106.837 28.8191V30.3244H102.921V28.8191H106.837ZM102.099 16.0487V20.5747C102.099 20.9236 101.811 21.2127 101.464 21.2127H66.6998C66.3429 21.2127 66.0653 20.9236 66.0653 20.5747V16.0487C66.0653 15.6998 66.3429 15.4107 66.6998 15.4107H101.464C101.811 15.4107 102.099 15.6898 102.099 16.0487ZM106.837 17.4344V18.9298H102.921V17.4344H106.837ZM69.3861 66.9109H93.871C94.7036 66.9109 95.3975 67.5988 95.3975 68.4462V93.1496C95.3975 93.9969 94.7136 94.6848 93.871 94.6848H69.3861C68.5435 94.6848 67.8596 93.9969 67.8596 93.1496V68.4362C67.8596 67.5988 68.5435 66.9109 69.3861 66.9109ZM75.8295 74.0787H87.4177C87.9232 74.0787 88.3396 74.4974 88.3396 75.0059V86.57C88.3396 87.0784 87.9232 87.4971 87.4177 87.4971H75.8295C75.324 87.4971 74.9076 87.0784 74.9076 86.57V75.0059C74.9076 74.4974 75.324 74.0787 75.8295 74.0787ZM104.557 82.0939V85.1145H97.8163V82.0939H104.557ZM104.557 76.3218V79.3424H97.8163V76.3218H104.557ZM104.557 87.866V91.4947H97.8163V87.866H104.557ZM104.557 69.9316V73.5603H97.8163V69.9316H104.557ZM59.612 82.0939V85.1145H66.3528V82.0939H59.612ZM59.612 76.3218V79.3424H66.3528V76.3218H59.612ZM59.612 87.866V91.4947H66.3528V87.866H59.612ZM59.612 69.9316V73.5603H66.3528V69.9316H59.612ZM83.4525 58.1182H86.4561V64.8972H83.4525V58.1182ZM77.713 58.1182H80.7166V64.8972H77.713V58.1182ZM89.1921 58.1182H92.8004V64.8972H89.1921V58.1182ZM71.3588 58.1182H74.9671V64.8972H71.3588V58.1182ZM83.4525 103.318H86.4561V96.5391H83.4525V103.318ZM77.713 103.318H80.7166V96.5391H77.713V103.318ZM89.1921 103.318H92.8004V96.5391H89.1921V103.318Z" fill="#1DD9B3"/>
</svg>
