<svg width="100" height="96" viewBox="0 0 100 96" fill="none" xmlns="http://www.w3.org/2000/svg">
<path fill-rule="evenodd" clip-rule="evenodd" d="M57.8652 83.8698H60.7799V78.3939H57.8652V83.8698ZM5.52849 0.539001H94.259C95.5803 0.539001 96.7894 1.08659 97.6622 1.96435C98.543 2.85017 99.0875 4.06615 99.0875 5.39487V90.3846C99.0875 91.7214 98.543 92.9373 97.6702 93.8232C96.7974 94.7009 95.5883 95.2485 94.259 95.2485H5.52849C4.19925 95.2485 2.99012 94.7009 2.11731 93.8232C1.2445 92.9454 0.699993 91.7214 0.699993 90.3846V5.39487C0.699993 4.06615 1.2445 2.85017 2.12532 1.96435C3.00614 1.08659 4.20726 0.539001 5.52849 0.539001ZM93.0659 6.60279H6.7296V44.2337H15.2816V40.9804C15.2015 40.9482 15.1294 40.8999 15.0654 40.8596C14.9372 40.7791 14.8171 40.6824 14.713 40.5858L14.705 40.5697C14.5209 40.3925 14.3767 40.1671 14.2726 39.9255C14.1765 39.6839 14.1205 39.4181 14.1205 39.1443C14.1205 38.8625 14.1765 38.6048 14.2726 38.3632C14.3767 38.1136 14.5289 37.8881 14.713 37.6868C14.8972 37.5016 15.1214 37.3486 15.3696 37.2439C15.6179 37.1472 15.8741 37.0909 16.1464 37.0909C16.4266 37.0909 16.6829 37.1472 16.9231 37.2439C17.1713 37.3486 17.3955 37.5016 17.5877 37.6868C17.7719 37.88 17.924 38.0975 18.0281 38.3471L18.0361 38.3632C18.1322 38.5967 18.1883 38.8625 18.1883 39.1282C18.1883 39.402 18.1322 39.6678 18.0361 39.9094C17.932 40.159 17.7799 40.3845 17.5957 40.5697L17.5797 40.5858C17.4836 40.6744 17.3875 40.763 17.2754 40.8354C17.2114 40.8757 17.1553 40.916 17.0912 40.9401V45.1357C17.0912 45.3853 16.9871 45.6188 16.827 45.7799C16.6588 45.9409 16.4346 46.0456 16.1864 46.0456H6.7296V48.7836H20.03C20.062 48.7111 20.102 48.6467 20.1421 48.5823L20.1501 48.5742C20.2302 48.4534 20.3182 48.3487 20.4143 48.2521C20.6065 48.0669 20.8227 47.9139 21.079 47.8092L21.095 47.8011C21.3352 47.7045 21.5914 47.6481 21.8557 47.6481C22.1279 47.6481 22.3922 47.7045 22.6324 47.8011C22.8806 47.9058 23.1128 48.0588 23.289 48.2441C23.4732 48.4293 23.6253 48.6548 23.7294 48.9044C23.8255 49.154 23.8816 49.4117 23.8816 49.6855C23.8816 49.9674 23.8255 50.2251 23.7294 50.4666C23.6253 50.7163 23.4732 50.9418 23.289 51.127C23.0968 51.3122 22.8806 51.4652 22.6324 51.5699L22.6164 51.5779C22.3762 51.6746 22.1199 51.7309 21.8557 51.7309C21.5754 51.7309 21.3192 51.6746 21.079 51.5779C20.8307 51.4732 20.6065 51.3202 20.4143 51.135C20.3182 51.0384 20.2222 50.9257 20.1501 50.7968C20.1101 50.7324 20.07 50.6599 20.038 50.5955H6.7296V53.7522H21.7516C21.9998 53.7522 22.224 53.8569 22.3922 54.0179C22.5603 54.179 22.6564 54.4045 22.6564 54.6622V61.4185C22.7365 61.4507 22.8246 61.499 22.9047 61.5474C23.0408 61.6359 23.1769 61.7326 23.289 61.8534C23.4732 62.0466 23.6253 62.2641 23.7294 62.5137L23.7374 62.5298C23.8335 62.7714 23.8816 63.0291 23.8816 63.2948C23.8816 63.5686 23.8255 63.8344 23.7294 64.076C23.6253 64.3256 23.4732 64.5511 23.289 64.7524C23.1048 64.9376 22.8806 65.0906 22.6324 65.1953C22.3842 65.2919 22.1279 65.3483 21.8557 65.3483C21.5834 65.3483 21.3192 65.2919 21.079 65.1953C20.8307 65.0906 20.6065 64.9376 20.4223 64.7524C20.2382 64.5672 20.086 64.3417 19.9819 64.0921C19.8858 63.8505 19.8298 63.5847 19.8298 63.3109C19.8298 63.0291 19.8858 62.7714 19.9819 62.5298C20.086 62.2802 20.2382 62.0466 20.4223 61.8614C20.5104 61.7728 20.5985 61.7004 20.7026 61.6279C20.7506 61.5957 20.8067 61.5635 20.8547 61.5312V55.5882H6.7296V58.1652H14.649C14.8972 58.1652 15.1214 58.2698 15.2816 58.4309C15.4497 58.6 15.5458 58.8255 15.5458 59.0751V62.6909C15.6099 62.7231 15.6739 62.7553 15.738 62.7955C15.8581 62.8761 15.9702 62.9647 16.0663 63.0613L16.0823 63.0774C16.2585 63.2626 16.4026 63.4881 16.5067 63.7297C16.6028 63.9713 16.6588 64.237 16.6588 64.5108C16.6588 64.7927 16.6028 65.0503 16.5067 65.2919L16.4987 65.308C16.3946 65.5577 16.2505 65.7751 16.0663 65.9603L16.0503 65.9684C15.8661 66.1536 15.6419 66.2985 15.4017 66.4032C15.1695 66.516 14.9052 66.5723 14.633 66.5723C14.3607 66.5723 14.0965 66.516 13.8562 66.4193C13.608 66.3146 13.3758 66.1616 13.1996 65.9764L13.1836 65.9603C13.0074 65.7751 12.8633 65.5496 12.7592 65.308C12.6631 65.0584 12.6071 64.8007 12.6071 64.5269C12.6071 64.2531 12.6631 63.9954 12.7592 63.7538C12.8633 63.5042 13.0155 63.2707 13.1996 63.0935C13.3037 62.9808 13.4158 62.8922 13.5439 62.8117C13.608 62.7633 13.6801 62.7311 13.7521 62.6909V60.0012H6.7296V89.1847H20.2462V80.5279H17.0192C16.9791 80.6004 16.9391 80.6809 16.8991 80.7453C16.819 80.8742 16.7229 80.995 16.6268 81.0916L16.6108 81.0997C16.4346 81.2849 16.2104 81.4298 15.9702 81.5345C15.73 81.6311 15.4657 81.6875 15.1935 81.6875C14.9132 81.6875 14.657 81.6311 14.4168 81.5345C14.1685 81.4298 13.9443 81.2768 13.7441 81.0916C13.56 80.9064 13.4078 80.6809 13.3037 80.4313C13.2076 80.1816 13.1516 79.9239 13.1516 79.6501C13.1516 79.3683 13.2076 79.1106 13.3037 78.869C13.4078 78.6194 13.56 78.3939 13.7441 78.2087C13.9363 78.0235 14.1525 77.8705 14.4007 77.7658L14.4168 77.7577C14.649 77.6611 14.9132 77.6047 15.1775 77.6047C15.4497 77.6047 15.714 77.6611 15.9542 77.7577C16.2024 77.8624 16.4266 78.0154 16.6108 78.2006L16.6268 78.2167C16.7229 78.3134 16.803 78.41 16.875 78.5228C16.9151 78.5872 16.9551 78.6435 16.9791 78.708H21.151C21.3993 78.708 21.6315 78.8127 21.7916 78.9737C21.9518 79.1428 22.0559 79.3683 22.0559 79.6179V89.1847H24.7784V75.7445C24.7063 75.7123 24.6423 75.672 24.5782 75.6318H24.5702C24.4501 75.5513 24.346 75.4627 24.2499 75.366C24.0657 75.1728 23.9136 74.9553 23.8095 74.7057L23.8015 74.6896C23.7054 74.448 23.6493 74.1903 23.6493 73.9165C23.6493 73.6427 23.7054 73.377 23.8015 73.1354C23.9056 72.8858 24.0577 72.6522 24.2419 72.4751C24.4261 72.2898 24.6503 72.1368 24.8985 72.0322C25.1467 71.9355 25.403 71.8792 25.6752 71.8792C25.9555 71.8792 26.2117 71.9355 26.452 72.0322C26.7002 72.1368 26.9244 72.2898 27.1086 72.4751C27.2927 72.6683 27.4449 72.8858 27.549 73.1354L27.557 73.1515C27.6531 73.3931 27.7011 73.6508 27.7011 73.9165C27.7011 74.1984 27.6451 74.4561 27.549 74.6976C27.4449 74.9473 27.2927 75.1728 27.1086 75.358C27.0125 75.4546 26.9004 75.5513 26.7723 75.6237C26.7082 75.664 26.6361 75.7043 26.5721 75.7365V89.1686H29.711V74.0132C29.711 73.7635 29.8151 73.538 29.9752 73.3689C30.1354 73.1998 30.3596 73.1032 30.6158 73.1032H37.3341C37.3741 73.0227 37.4142 72.9341 37.4622 72.8536C37.5503 72.7167 37.6544 72.5798 37.7665 72.467C37.9587 72.2818 38.1749 72.1288 38.4231 72.0241L38.4391 72.0161C38.6793 71.9194 38.9356 71.8711 39.1998 71.8711C39.4721 71.8711 39.7363 71.9275 39.9765 72.0241C40.2248 72.1288 40.449 72.2818 40.6492 72.467C40.8333 72.6522 40.9855 72.8777 41.0896 73.1273C41.1857 73.377 41.2417 73.6347 41.2417 73.9085C41.2417 74.1903 41.1857 74.448 41.0896 74.6896C40.9855 74.9392 40.8333 75.1647 40.6492 75.3499C40.465 75.5351 40.2408 75.6881 39.9925 75.7928C39.7523 75.8895 39.4881 75.9458 39.2158 75.9458C38.9356 75.9458 38.6793 75.8895 38.4391 75.7928C38.1909 75.6881 37.9667 75.5351 37.7745 75.3499C37.6864 75.2614 37.6143 75.1728 37.5423 75.0681C37.5102 75.0198 37.4782 74.9634 37.4462 74.9151H31.5367V89.1686H34.0991V81.148C34.0991 80.8983 34.2032 80.6729 34.3633 80.5118C34.5315 80.3427 34.7557 80.2461 35.0039 80.2461H38.5993C38.6313 80.1816 38.6633 80.1172 38.7114 80.0528C38.7914 79.932 38.8795 79.8193 38.9756 79.7226L38.9916 79.7065C39.1758 79.5294 39.392 79.3844 39.6402 79.2797C39.8804 79.1831 40.1447 79.1267 40.4169 79.1267C40.6892 79.1267 40.9534 79.1831 41.1937 79.2797L41.2097 79.2878C41.4579 79.3925 41.6741 79.5374 41.8583 79.7226L41.8663 79.7387C42.0505 79.9239 42.1946 80.1414 42.2987 80.383C42.3948 80.6245 42.4508 80.8903 42.4508 81.1641C42.4508 81.4379 42.3948 81.7036 42.2987 81.9452C42.1946 82.1948 42.0425 82.4284 41.8583 82.6055L41.8423 82.6217C41.6581 82.7988 41.4339 82.9438 41.1937 83.0485C40.9454 83.1451 40.6892 83.2015 40.4169 83.2015C40.1447 83.2015 39.8804 83.1451 39.6402 83.0485C39.392 82.9438 39.1598 82.7908 38.9836 82.6055C38.8795 82.5009 38.7834 82.3881 38.7034 82.2593C38.6553 82.1949 38.6233 82.1224 38.5832 82.0499H35.9088V89.1525H93.0579V6.60279H93.0659ZM26.9885 32.4363H28.1335V29.4165H26.9885V32.4363ZM14.1125 32.4363H15.2575V29.4165H14.1125V32.4363ZM13.9203 15.3884H19.9499C20.2141 15.3884 20.4384 15.6059 20.4384 15.8797V27.9187C20.4384 28.1844 20.2141 28.4018 19.9499 28.4018H13.9203C13.656 28.4018 13.4318 28.1844 13.4318 27.9187V15.8716C13.4318 15.5978 13.656 15.3884 13.9203 15.3884ZM18.7968 11.3057H19.7417V14.3255H18.7968V11.3057ZM16.5547 11.3057H17.4996V14.3255H16.5547V11.3057ZM14.1125 11.3057H15.2575V14.3255H14.1125V11.3057ZM18.7968 32.4363H19.7417V29.4165H18.7968V32.4363ZM16.5547 32.4363H17.4996V29.4165H16.5547V32.4363ZM26.7963 15.3884H32.8259C33.0981 15.3884 33.3063 15.6059 33.3063 15.8797V27.9187C33.3063 28.1844 33.0901 28.4018 32.8259 28.4018H26.7963C26.532 28.4018 26.3158 28.1844 26.3158 27.9187V15.8716C26.3078 15.5978 26.532 15.3884 26.7963 15.3884ZM31.6728 11.3057H32.6257V14.3255H31.6728V11.3057ZM29.4307 11.3057H30.3756V14.3255H29.4307V11.3057ZM26.9885 11.3057H28.1335V14.3255H26.9885V11.3057ZM31.6728 32.4363H32.6257V29.4165H31.6728V32.4363ZM29.4307 32.4363H30.3756V29.4165H29.4307V32.4363ZM41.8263 14.5993C41.8263 14.1644 42.3067 13.802 42.9073 13.802C43.5078 13.802 43.9883 14.1564 43.9883 14.5993V41.0368C43.9883 41.4716 43.5078 41.834 42.9073 41.834C42.3067 41.834 41.8263 41.4797 41.8263 41.0368V14.5993ZM48.8968 14.4946V15.7025H52.9726V14.4946H48.8968ZM48.8968 32.8953V34.1113H52.9726V32.8953H48.8968ZM82.6963 31.776V35.432C82.6963 35.7138 82.4641 35.9474 82.1838 35.9474H54.1017C53.8134 35.9474 53.5892 35.7138 53.5892 35.432V31.776C53.5892 31.4941 53.8134 31.2606 54.1017 31.2606H82.1838C82.4641 31.2606 82.6963 31.4941 82.6963 31.776ZM86.5238 32.8953V34.1113H83.3609V32.8953H86.5238ZM48.8968 23.6909V24.9069H52.9726V23.6909H48.8968ZM82.6963 22.5796V26.2276C82.6963 26.5175 82.4641 26.743 82.1838 26.743H54.1017C53.8134 26.743 53.5892 26.5175 53.5892 26.2276V22.5796C53.5892 22.2897 53.8134 22.0643 54.1017 22.0643H82.1838C82.4641 22.0643 82.6963 22.2897 82.6963 22.5796ZM86.5238 23.6909V24.9069H83.3609V23.6909H86.5238ZM82.6963 13.3752V17.0312C82.6963 17.3131 82.4641 17.5466 82.1838 17.5466H54.1017C53.8134 17.5466 53.5892 17.3131 53.5892 17.0312V13.3752C53.5892 13.0934 53.8134 12.8599 54.1017 12.8599H82.1838C82.4641 12.8599 82.6963 13.0853 82.6963 13.3752ZM86.5238 14.4946V15.7025H83.3609V14.4946H86.5238ZM56.2717 54.4608H76.0501C76.7227 54.4608 77.2832 55.0165 77.2832 55.701V75.6559C77.2832 76.3404 76.7307 76.8961 76.0501 76.8961H56.2717C55.5911 76.8961 55.0386 76.3404 55.0386 75.6559V55.6929C55.0386 55.0165 55.5911 54.4608 56.2717 54.4608ZM61.4765 60.2508H70.8372C71.2456 60.2508 71.5819 60.5891 71.5819 60.9998V70.3411C71.5819 70.7518 71.2456 71.09 70.8372 71.09H61.4765C61.0682 71.09 60.7318 70.7518 60.7318 70.3411V60.9998C60.7318 60.5891 61.0682 60.2508 61.4765 60.2508ZM84.6821 66.7253V69.1653H79.2371V66.7253H84.6821ZM84.6821 62.0627V64.5028H79.2371V62.0627H84.6821ZM84.6821 71.3879V74.3192H79.2371V71.3879H84.6821ZM84.6821 56.9009V59.8321H79.2371V56.9009H84.6821ZM48.3764 66.7253V69.1653H53.8214V66.7253H48.3764ZM48.3764 62.0627V64.5028H53.8214V62.0627H48.3764ZM48.3764 71.3879V74.3192H53.8214V71.3879H48.3764ZM48.3764 56.9009V59.8321H53.8214V56.9009H48.3764ZM67.6343 47.3582H70.0605V52.8342H67.6343V47.3582ZM62.998 47.3582H65.4242V52.8342H62.998V47.3582ZM72.2706 47.3582H75.1853V52.8342H72.2706V47.3582ZM57.8652 47.3582H60.7799V52.8342H57.8652V47.3582ZM67.6343 83.8698H70.0605V78.3939H67.6343V83.8698ZM62.998 83.8698H65.4242V78.3939H62.998V83.8698ZM72.2706 83.8698H75.1853V78.3939H72.2706V83.8698Z" fill="#A6CDC5"/>
</svg>
