<svg width="100" height="96" viewBox="0 0 100 96" fill="none" xmlns="http://www.w3.org/2000/svg">
<path fill-rule="evenodd" clip-rule="evenodd" d="M57.8652 83.7074H60.7799V78.2315H57.8652V83.7074ZM5.52849 0.376587H94.259C95.5803 0.376587 96.7894 0.92418 97.6622 1.80194C98.543 2.68775 99.0875 3.90373 99.0875 5.23245V90.2222C99.0875 91.559 98.543 92.7749 97.6702 93.6607C96.7974 94.5385 95.5883 95.0861 94.259 95.0861H5.52849C4.19925 95.0861 2.99012 94.5385 2.11731 93.6607C1.2445 92.783 0.699993 91.559 0.699993 90.2222V5.23245C0.699993 3.90373 1.2445 2.68775 2.12532 1.80194C3.00614 0.92418 4.20726 0.376587 5.52849 0.376587ZM93.0659 6.44038H6.7296V44.0713H15.2816V40.818C15.2015 40.7858 15.1294 40.7374 15.0654 40.6972C14.9372 40.6167 14.8171 40.52 14.713 40.4234L14.705 40.4073C14.5209 40.2301 14.3767 40.0046 14.2726 39.7631C14.1765 39.5215 14.1205 39.2557 14.1205 38.9819C14.1205 38.7001 14.1765 38.4424 14.2726 38.2008C14.3767 37.9512 14.5289 37.7257 14.713 37.5244C14.8972 37.3391 15.1214 37.1861 15.3696 37.0815C15.6179 36.9848 15.8741 36.9285 16.1464 36.9285C16.4266 36.9285 16.6829 36.9848 16.9231 37.0815C17.1713 37.1861 17.3955 37.3391 17.5877 37.5244C17.7719 37.7176 17.924 37.9351 18.0281 38.1847L18.0361 38.2008C18.1322 38.4343 18.1883 38.7001 18.1883 38.9658C18.1883 39.2396 18.1322 39.5054 18.0361 39.7469C17.932 39.9966 17.7799 40.2221 17.5957 40.4073L17.5797 40.4234C17.4836 40.512 17.3875 40.6005 17.2754 40.673C17.2114 40.7133 17.1553 40.7536 17.0912 40.7777V44.9732C17.0912 45.2229 16.9871 45.4564 16.827 45.6175C16.6588 45.7785 16.4346 45.8832 16.1864 45.8832H6.7296V48.6212H20.03C20.062 48.5487 20.102 48.4843 20.1421 48.4199L20.1501 48.4118C20.2302 48.291 20.3182 48.1863 20.4143 48.0897C20.6065 47.9045 20.8227 47.7515 21.079 47.6468L21.095 47.6387C21.3352 47.5421 21.5914 47.4857 21.8557 47.4857C22.1279 47.4857 22.3922 47.5421 22.6324 47.6387C22.8806 47.7434 23.1128 47.8964 23.289 48.0816C23.4732 48.2669 23.6253 48.4923 23.7294 48.742C23.8255 48.9916 23.8816 49.2493 23.8816 49.5231C23.8816 49.8049 23.8255 50.0626 23.7294 50.3042C23.6253 50.5539 23.4732 50.7793 23.289 50.9646C23.0968 51.1498 22.8806 51.3028 22.6324 51.4075L22.6164 51.4155C22.3762 51.5122 22.1199 51.5685 21.8557 51.5685C21.5754 51.5685 21.3192 51.5122 21.079 51.4155C20.8307 51.3108 20.6065 51.1578 20.4143 50.9726C20.3182 50.876 20.2222 50.7632 20.1501 50.6344C20.1101 50.57 20.07 50.4975 20.038 50.4331H6.7296V53.5898H21.7516C21.9998 53.5898 22.224 53.6945 22.3922 53.8555C22.5603 54.0166 22.6564 54.2421 22.6564 54.4998V61.2561C22.7365 61.2883 22.8246 61.3366 22.9047 61.3849C23.0408 61.4735 23.1769 61.5702 23.289 61.6909C23.4732 61.8842 23.6253 62.1016 23.7294 62.3513L23.7374 62.3674C23.8335 62.609 23.8816 62.8667 23.8816 63.1324C23.8816 63.4062 23.8255 63.672 23.7294 63.9135C23.6253 64.1632 23.4732 64.3886 23.289 64.59C23.1048 64.7752 22.8806 64.9282 22.6324 65.0329C22.3842 65.1295 22.1279 65.1859 21.8557 65.1859C21.5834 65.1859 21.3192 65.1295 21.079 65.0329C20.8307 64.9282 20.6065 64.7752 20.4223 64.59C20.2382 64.4048 20.086 64.1793 19.9819 63.9296C19.8858 63.6881 19.8298 63.4223 19.8298 63.1485C19.8298 62.8667 19.8858 62.609 19.9819 62.3674C20.086 62.1178 20.2382 61.8842 20.4223 61.699C20.5104 61.6104 20.5985 61.5379 20.7026 61.4655C20.7506 61.4333 20.8067 61.401 20.8547 61.3688V55.4258H6.7296V58.0027H14.649C14.8972 58.0027 15.1214 58.1074 15.2816 58.2685C15.4497 58.4376 15.5458 58.6631 15.5458 58.9127V62.5284C15.6099 62.5607 15.6739 62.5929 15.738 62.6331C15.8581 62.7137 15.9702 62.8022 16.0663 62.8989L16.0823 62.915C16.2585 63.1002 16.4026 63.3257 16.5067 63.5673C16.6028 63.8088 16.6588 64.0746 16.6588 64.3484C16.6588 64.6302 16.6028 64.8879 16.5067 65.1295L16.4987 65.1456C16.3946 65.3953 16.2505 65.6127 16.0663 65.7979L16.0503 65.806C15.8661 65.9912 15.6419 66.1361 15.4017 66.2408C15.1695 66.3535 14.9052 66.4099 14.633 66.4099C14.3607 66.4099 14.0965 66.3535 13.8562 66.2569C13.608 66.1522 13.3758 65.9992 13.1996 65.814L13.1836 65.7979C13.0074 65.6127 12.8633 65.3872 12.7592 65.1456C12.6631 64.896 12.6071 64.6383 12.6071 64.3645C12.6071 64.0907 12.6631 63.833 12.7592 63.5914C12.8633 63.3418 13.0155 63.1082 13.1996 62.9311C13.3037 62.8183 13.4158 62.7298 13.5439 62.6492C13.608 62.6009 13.6801 62.5687 13.7521 62.5284V59.8388H6.7296V89.0223H20.2462V80.3655H17.0192C16.9791 80.438 16.9391 80.5185 16.8991 80.5829C16.819 80.7118 16.7229 80.8326 16.6268 80.9292L16.6108 80.9372C16.4346 81.1225 16.2104 81.2674 15.9702 81.3721C15.73 81.4687 15.4657 81.5251 15.1935 81.5251C14.9132 81.5251 14.657 81.4687 14.4168 81.3721C14.1685 81.2674 13.9443 81.1144 13.7441 80.9292C13.56 80.744 13.4078 80.5185 13.3037 80.2689C13.2076 80.0192 13.1516 79.7615 13.1516 79.4877C13.1516 79.2059 13.2076 78.9482 13.3037 78.7066C13.4078 78.457 13.56 78.2315 13.7441 78.0463C13.9363 77.8611 14.1525 77.7081 14.4007 77.6034L14.4168 77.5953C14.649 77.4987 14.9132 77.4423 15.1775 77.4423C15.4497 77.4423 15.714 77.4987 15.9542 77.5953C16.2024 77.7 16.4266 77.853 16.6108 78.0382L16.6268 78.0543C16.7229 78.151 16.803 78.2476 16.875 78.3603C16.9151 78.4248 16.9551 78.4811 16.9791 78.5456H21.151C21.3993 78.5456 21.6315 78.6502 21.7916 78.8113C21.9518 78.9804 22.0559 79.2059 22.0559 79.4555V89.0223H24.7784V75.5821C24.7063 75.5499 24.6423 75.5096 24.5782 75.4694H24.5702C24.4501 75.3888 24.346 75.3003 24.2499 75.2036C24.0657 75.0104 23.9136 74.7929 23.8095 74.5433L23.8015 74.5272C23.7054 74.2856 23.6493 74.0279 23.6493 73.7541C23.6493 73.4803 23.7054 73.2146 23.8015 72.973C23.9056 72.7234 24.0577 72.4898 24.2419 72.3127C24.4261 72.1274 24.6503 71.9744 24.8985 71.8697C25.1467 71.7731 25.403 71.7167 25.6752 71.7167C25.9555 71.7167 26.2117 71.7731 26.452 71.8697C26.7002 71.9744 26.9244 72.1274 27.1086 72.3127C27.2927 72.5059 27.4449 72.7234 27.549 72.973L27.557 72.9891C27.6531 73.2307 27.7011 73.4884 27.7011 73.7541C27.7011 74.036 27.6451 74.2936 27.549 74.5352C27.4449 74.7849 27.2927 75.0104 27.1086 75.1956C27.0125 75.2922 26.9004 75.3888 26.7723 75.4613C26.7082 75.5016 26.6361 75.5418 26.5721 75.5741V89.0062H29.711V73.8507C29.711 73.6011 29.8151 73.3756 29.9752 73.2065C30.1354 73.0374 30.3596 72.9408 30.6158 72.9408H37.3341C37.3741 72.8602 37.4142 72.7717 37.4622 72.6911C37.5503 72.5542 37.6544 72.4173 37.7665 72.3046C37.9587 72.1194 38.1749 71.9664 38.4231 71.8617L38.4391 71.8536C38.6793 71.757 38.9356 71.7087 39.1998 71.7087C39.4721 71.7087 39.7363 71.7651 39.9765 71.8617C40.2248 71.9664 40.449 72.1194 40.6492 72.3046C40.8333 72.4898 40.9855 72.7153 41.0896 72.9649C41.1857 73.2146 41.2417 73.4723 41.2417 73.7461C41.2417 74.0279 41.1857 74.2856 41.0896 74.5272C40.9855 74.7768 40.8333 75.0023 40.6492 75.1875C40.465 75.3727 40.2408 75.5257 39.9925 75.6304C39.7523 75.7271 39.4881 75.7834 39.2158 75.7834C38.9356 75.7834 38.6793 75.7271 38.4391 75.6304C38.1909 75.5257 37.9667 75.3727 37.7745 75.1875C37.6864 75.0989 37.6143 75.0104 37.5423 74.9057C37.5102 74.8574 37.4782 74.801 37.4462 74.7527H31.5367V89.0062H34.0991V80.9856C34.0991 80.7359 34.2032 80.5104 34.3633 80.3494C34.5315 80.1803 34.7557 80.0836 35.0039 80.0836H38.5993C38.6313 80.0192 38.6633 79.9548 38.7114 79.8904C38.7914 79.7696 38.8795 79.6568 38.9756 79.5602L38.9916 79.5441C39.1758 79.3669 39.392 79.222 39.6402 79.1173C39.8804 79.0207 40.1447 78.9643 40.4169 78.9643C40.6892 78.9643 40.9534 79.0207 41.1937 79.1173L41.2097 79.1254C41.4579 79.23 41.6741 79.375 41.8583 79.5602L41.8663 79.5763C42.0505 79.7615 42.1946 79.979 42.2987 80.2205C42.3948 80.4621 42.4508 80.7279 42.4508 81.0017C42.4508 81.2755 42.3948 81.5412 42.2987 81.7828C42.1946 82.0324 42.0425 82.266 41.8583 82.4431L41.8423 82.4592C41.6581 82.6364 41.4339 82.7813 41.1937 82.886C40.9454 82.9827 40.6892 83.039 40.4169 83.039C40.1447 83.039 39.8804 82.9827 39.6402 82.886C39.392 82.7813 39.1598 82.6283 38.9836 82.4431C38.8795 82.3384 38.7834 82.2257 38.7034 82.0969C38.6553 82.0324 38.6233 81.96 38.5832 81.8875H35.9088V88.9901H93.0579V6.44038H93.0659ZM26.9885 32.2739H28.1335V29.2541H26.9885V32.2739ZM14.1125 32.2739H15.2575V29.2541H14.1125V32.2739ZM13.9203 15.226H19.9499C20.2141 15.226 20.4384 15.4435 20.4384 15.7173V27.7563C20.4384 28.022 20.2141 28.2394 19.9499 28.2394H13.9203C13.656 28.2394 13.4318 28.022 13.4318 27.7563V15.7092C13.4318 15.4354 13.656 15.226 13.9203 15.226ZM18.7968 11.1432H19.7417V14.1631H18.7968V11.1432ZM16.5547 11.1432H17.4996V14.1631H16.5547V11.1432ZM14.1125 11.1432H15.2575V14.1631H14.1125V11.1432ZM18.7968 32.2739H19.7417V29.2541H18.7968V32.2739ZM16.5547 32.2739H17.4996V29.2541H16.5547V32.2739ZM26.7963 15.226H32.8259C33.0981 15.226 33.3063 15.4435 33.3063 15.7173V27.7563C33.3063 28.022 33.0901 28.2394 32.8259 28.2394H26.7963C26.532 28.2394 26.3158 28.022 26.3158 27.7563V15.7092C26.3078 15.4354 26.532 15.226 26.7963 15.226ZM31.6728 11.1432H32.6257V14.1631H31.6728V11.1432ZM29.4307 11.1432H30.3756V14.1631H29.4307V11.1432ZM26.9885 11.1432H28.1335V14.1631H26.9885V11.1432ZM31.6728 32.2739H32.6257V29.2541H31.6728V32.2739ZM29.4307 32.2739H30.3756V29.2541H29.4307V32.2739ZM41.8263 14.4369C41.8263 14.002 42.3067 13.6396 42.9073 13.6396C43.5078 13.6396 43.9883 13.9939 43.9883 14.4369V40.8743C43.9883 41.3092 43.5078 41.6716 42.9073 41.6716C42.3067 41.6716 41.8263 41.3173 41.8263 40.8743V14.4369ZM48.8968 14.3322V15.5401H52.9726V14.3322H48.8968ZM48.8968 32.7329V33.9489H52.9726V32.7329H48.8968ZM82.6963 31.6136V35.2696C82.6963 35.5514 82.4641 35.7849 82.1838 35.7849H54.1017C53.8134 35.7849 53.5892 35.5514 53.5892 35.2696V31.6136C53.5892 31.3317 53.8134 31.0982 54.1017 31.0982H82.1838C82.4641 31.0982 82.6963 31.3317 82.6963 31.6136ZM86.5238 32.7329V33.9489H83.3609V32.7329H86.5238ZM48.8968 23.5285V24.7445H52.9726V23.5285H48.8968ZM82.6963 22.4172V26.0652C82.6963 26.3551 82.4641 26.5805 82.1838 26.5805H54.1017C53.8134 26.5805 53.5892 26.3551 53.5892 26.0652V22.4172C53.5892 22.1273 53.8134 21.9018 54.1017 21.9018H82.1838C82.4641 21.9018 82.6963 22.1273 82.6963 22.4172ZM86.5238 23.5285V24.7445H83.3609V23.5285H86.5238ZM82.6963 13.2128V16.8688C82.6963 17.1507 82.4641 17.3842 82.1838 17.3842H54.1017C53.8134 17.3842 53.5892 17.1507 53.5892 16.8688V13.2128C53.5892 12.931 53.8134 12.6974 54.1017 12.6974H82.1838C82.4641 12.6974 82.6963 12.9229 82.6963 13.2128ZM86.5238 14.3322V15.5401H83.3609V14.3322H86.5238ZM56.2717 54.2984H76.0501C76.7227 54.2984 77.2832 54.8541 77.2832 55.5386V75.4935C77.2832 76.178 76.7307 76.7337 76.0501 76.7337H56.2717C55.5911 76.7337 55.0386 76.178 55.0386 75.4935V55.5305C55.0386 54.8541 55.5911 54.2984 56.2717 54.2984ZM61.4765 60.0884H70.8372C71.2456 60.0884 71.5819 60.4267 71.5819 60.8373V70.1786C71.5819 70.5893 71.2456 70.9276 70.8372 70.9276H61.4765C61.0682 70.9276 60.7318 70.5893 60.7318 70.1786V60.8373C60.7318 60.4267 61.0682 60.0884 61.4765 60.0884ZM84.6821 66.5629V69.0029H79.2371V66.5629H84.6821ZM84.6821 61.9003V64.3403H79.2371V61.9003H84.6821ZM84.6821 71.2255V74.1568H79.2371V71.2255H84.6821ZM84.6821 56.7384V59.6697H79.2371V56.7384H84.6821ZM48.3764 66.5629V69.0029H53.8214V66.5629H48.3764ZM48.3764 61.9003V64.3403H53.8214V61.9003H48.3764ZM48.3764 71.2255V74.1568H53.8214V71.2255H48.3764ZM48.3764 56.7384V59.6697H53.8214V56.7384H48.3764ZM67.6343 47.1958H70.0605V52.6718H67.6343V47.1958ZM62.998 47.1958H65.4242V52.6718H62.998V47.1958ZM72.2706 47.1958H75.1853V52.6718H72.2706V47.1958ZM57.8652 47.1958H60.7799V52.6718H57.8652V47.1958ZM67.6343 83.7074H70.0605V78.2315H67.6343V83.7074ZM62.998 83.7074H65.4242V78.2315H62.998V83.7074ZM72.2706 83.7074H75.1853V78.2315H72.2706V83.7074Z" fill="#A6CDC5"/>
</svg>
